<svg width="60" height="101" viewBox="0 0 60 101" fill="none" xmlns="http://www.w3.org/2000/svg">
<ellipse opacity="0.7" cx="30" cy="89" rx="26" ry="12" fill="#E8E8E8"/>
<ellipse opacity="0.7" cx="30.0003" cy="88.9999" rx="17.3333" ry="8.57143" fill="#D2D2D2"/>
<ellipse opacity="0.5" cx="30.0002" cy="88.9997" rx="8.66667" ry="3.42857" fill="#777777"/>
<path d="M60 32.5C60 47.9579 48.3685 62.4261 33.2985 83.3802C31.6838 85.6253 28.3253 85.6188 26.7174 83.3689C11.7466 62.4209 0 47.9551 0 32.5C0 15.9315 13.4315 2.5 30 2.5C46.5685 2.5 60 15.9315 60 32.5Z" fill="#303030"/>
<circle cx="30" cy="32.5" r="26" fill="white"/>
<rect x="11.9173" y="18.9173" width="36.1654" height="21.8598" rx="4.58644" fill="#98F5FF" stroke="#222222" stroke-width="1.83458"/>
<path d="M25 33.7963C26.5088 35.2863 30.6211 37.3723 35 33.7963" stroke="#222222" stroke-width="1.83458" stroke-linecap="round"/>
<path d="M21.6572 39.8387C23.4213 39.8387 24.832 41.2477 24.832 42.9608C24.832 44.674 23.4213 46.0829 21.6572 46.0829C19.8933 46.0827 18.4834 44.6738 18.4834 42.9608C18.4834 41.2478 19.8934 39.839 21.6572 39.8387Z" fill="#4E4E4E" stroke="#222222" stroke-width="1.83439"/>
<path d="M21.6572 39.8387C23.4213 39.8387 24.832 41.2477 24.832 42.9608C24.832 44.674 23.4213 46.0829 21.6572 46.0829C19.8933 46.0827 18.4834 44.6738 18.4834 42.9608C18.4834 41.2478 19.8934 39.839 21.6572 39.8387Z" fill="#4E4E4E" stroke="#222222" stroke-width="1.83439"/>
<path d="M39.7178 39.8387C41.4818 39.8387 42.8925 41.2477 42.8926 42.9608C42.8926 44.674 41.4819 46.0829 39.7178 46.0829C37.9539 46.0827 36.5439 44.6738 36.5439 42.9608C36.544 41.2478 37.9539 39.839 39.7178 39.8387Z" fill="#4E4E4E" stroke="#222222" stroke-width="1.83439"/>
<path d="M39.7178 39.8387C41.4818 39.8387 42.8925 41.2477 42.8926 42.9608C42.8926 44.674 41.4819 46.0829 39.7178 46.0829C37.9539 46.0827 36.5439 44.6738 36.5439 42.9608C36.544 41.2478 37.9539 39.839 39.7178 39.8387Z" fill="#4E4E4E" stroke="#222222" stroke-width="1.83439"/>
<path d="M24.1016 25.7516C24.6701 25.7516 25.3633 26.3509 25.3633 27.4011C25.3632 28.4511 24.6701 29.0505 24.1016 29.0505C23.5331 29.0503 22.8409 28.4509 22.8408 27.4011C22.8408 26.3511 23.533 25.7519 24.1016 25.7516Z" fill="#222222" stroke="#222222" stroke-width="1.68147"/>
<path d="M36.2065 25.7515C36.7751 25.7515 37.4683 26.3508 37.4683 27.4009C37.4682 28.4509 36.7751 29.0503 36.2065 29.0503C35.638 29.0501 34.9459 28.4507 34.9458 27.4009C34.9458 26.3509 35.638 25.7517 36.2065 25.7515Z" fill="#222222" stroke="#222222" stroke-width="1.68147"/>
</svg>
